<?xml version="1.0" encoding="UTF-8" standalone="no"?><!DOCTYPE svg PUBLIC "-//W3C//DTD SVG 1.1//EN" "http://www.w3.org/Graphics/SVG/1.1/DTD/svg11.dtd"><svg width="100%" height="100%" viewBox="0 0 1024 1024" version="1.1" xmlns="http://www.w3.org/2000/svg" xmlns:xlink="http://www.w3.org/1999/xlink" xml:space="preserve" xmlns:serif="http://www.serif.com/" style="fill-rule:evenodd;clip-rule:evenodd;stroke-linejoin:round;stroke-miterlimit:2;"><g><path d="M-0,505.076l252.896,-0c56.358,-0 100.776,-12.777 133.254,-38.329c32.478,-25.552 48.716,-60.537 48.716,-104.955c0,-33.911 -9.671,-61.493 -29.014,-82.747c-15.416,-16.938 -36.065,-29.098 -61.946,-36.481c20.456,-8.245 37.283,-20.324 50.483,-36.235c17.433,-21.015 26.149,-46.329 26.149,-75.941c0,-40.119 -15.164,-71.88 -45.493,-95.283c-30.328,-23.403 -73.671,-35.105 -130.03,-35.105l310.447,0l-0,505.076l132.537,-0l0,-202.031l203.463,0l0,202.031l132.538,-0l0,518.924l-73.75,-138.54c-10.109,-19.759 -22.976,-35.152 -38.599,-46.181c-6.023,-4.251 -12.387,-7.683 -19.092,-10.295c6.389,-2.12 12.523,-4.547 18.403,-7.281c26.192,-12.176 46.18,-29.408 59.965,-51.694c13.785,-22.286 20.678,-49.282 20.678,-80.987c-0,-47.329 -15.279,-84.319 -45.836,-110.971c-30.557,-26.651 -73.865,-39.976 -129.924,-39.976l-260.383,-0l-0,485.925l-120.596,0l0,-105.456l-307.354,-0l0,-380.469l-127.512,-0l-0,-32.999Zm682.974,518.924l0,-181.274l66.702,-0c12.407,-0 23.55,1.838 33.429,5.514c9.879,3.676 17.346,10.568 22.401,20.677l79.264,155.083l-201.796,-0Zm208.488,-1024l0,194.866l-203.463,0l0,-194.866l203.463,-0Zm-764.656,408.359l0,-111.045l108.896,-0c24.836,-0 43.343,4.299 55.522,12.896c12.18,8.597 18.269,22.686 18.269,42.268c0,19.105 -6.089,33.194 -18.269,42.269c-12.179,9.075 -30.686,13.612 -55.522,13.612l-108.896,-0Zm0,-207.762l0,-103.88l93.851,-0c25.314,-0 43.821,4.179 55.523,12.537c11.701,8.358 17.552,21.373 17.552,39.045c-0,17.671 -5.851,30.806 -17.552,39.403c-11.702,8.597 -30.209,12.895 -55.523,12.895l-93.851,0Zm556.168,551.836l0,-117.173l110.815,-0c24.813,-0 43.652,4.824 56.519,14.474c12.866,9.65 19.299,24.124 19.299,43.423c-0,19.759 -6.433,34.578 -19.299,44.457c-12.867,9.88 -31.706,14.819 -56.519,14.819l-110.815,0Z" style="fill:#fff;"/></g></svg>